Coordinates
version=1
nRows=9
nColumns=42
inDegrees=yes

Units are S.I. units (second, meters, Newtons, ...)
If the header above contains a line with 'inDegrees', this indicates whether rotational values are in degrees (yes) or radians (no).

endheader
time	pelvis_tilt	pelvis_list	pelvis_rotation	pelvis_tx	pelvis_ty	pelvis_tz	hip_flexion_r	hip_adduction_r	hip_rotation_r	knee_angle_r	knee_adduction_r	knee_angle_r_beta	ankle_angle_r	subtalar_angle_r	mtp_angle_r	hip_flexion_l	hip_adduction_l	hip_rotation_l	knee_angle_l	knee_adduction_l	knee_angle_l_beta	ankle_angle_l	subtalar_angle_l	mtp_angle_l	lumbar_extension	lumbar_bending	lumbar_rotation	arm_flex_r	arm_add_r	arm_rot_r	elbow_flex_r	pro_sup_r	wrist_flex_r	wrist_dev_r	arm_flex_l	arm_add_l	arm_rot_l	elbow_flex_l	pro_sup_l	wrist_flex_l	wrist_dev_l
      1.32000000	     20.59439541	      3.20349884	      2.82236216	      0.02700199	      0.93726415	     -0.26173275	    -22.71928326	     -9.76094092	    -16.29149554	     54.66960682	     -1.25616286	      0.95416464	     -3.35099670	     12.39133639	     -7.63962197	     -6.64615249	      7.98780450	     -5.95530400	     24.77918622	     -5.28975551	      0.43247839	     17.66935203	      3.28055356	     -7.63962197	    -32.17447273	     -3.89082065	      3.29662924	     10.44667888	    -11.59540871	    -20.53281538	     27.99223786	     90.00000001	      0.00000000	      0.00000000	     -2.68614217	    -17.11178379	      2.38738523	     68.69909121	     90.00000001	      0.00000000	      0.00000000
      1.33000000	     20.70423374	      3.04336003	      2.75608373	      0.03218874	      0.93774253	     -0.26334899	    -21.64345827	     -9.75256206	    -16.17736245	     56.53379580	     -1.74130298	      0.98670088	     -2.49102124	     11.24508822	     -7.63650514	     -7.14546192	      7.83866260	     -5.73846550	     24.79367503	     -4.98927426	      0.43273126	     18.11300100	      3.19365492	     -7.63650514	    -32.35972865	     -3.81221543	      3.39953434	      9.94515956	    -11.73991574	    -20.77983864	     27.84680406	     90.00000001	      0.00000000	      0.00000000	     -2.49450314	    -17.17292856	      2.38508479	     69.00337897	     90.00000001	      0.00000000	      0.00000000
      1.34000000	     20.81585700	      2.89707044	      2.71983266	      0.03716127	      0.93823297	     -0.26501949	    -20.56553714	     -9.76279244	    -16.15805655	     58.26025414	     -2.16720250	      1.01683326	     -1.37673705	     10.02659228	     -7.63378573	     -7.59802770	      7.74149126	     -5.38671510	     24.89446235	     -4.75720674	      0.43449033	     18.41567119	      2.91776125	     -7.63378573	    -32.58737879	     -3.72193301	      3.45247182	      9.50006886	    -11.90812535	    -21.03751012	     27.67183258	     90.00000001	      0.00000000	      0.00000000	     -2.30569992	    -17.28852617	      2.39361662	     69.23934833	     90.00000001	      0.00000000	      0.00000000
      1.35000000	     20.87393877	      2.78525962	      2.68064369	      0.04202181	      0.93866775	     -0.26665715	    -19.41238153	     -9.79898133	    -16.17356693	     59.86281535	     -2.56884010	      1.04480323	      0.01481490	      8.64618208	     -7.63079848	     -8.01152326	      7.69514859	     -4.85085836	     24.96158438	     -4.45021680	      0.43566183	     18.60779299	      2.30021291	     -7.63079848	    -32.74431520	     -3.66416646	      3.44108678	      9.12678915	    -12.02373677	    -21.41300929	     27.45173475	     90.00000001	      0.00000000	      0.00000000	     -2.12008344	    -17.41319949	      2.42593424	     69.44340442	     90.00000001	      0.00000000	      0.00000000
      1.36000000	     21.02707770	      2.62281655	      2.60961182	      0.04675391	      0.93930002	     -0.26811961	    -18.36620671	     -9.72391223	    -16.24471290	     61.16959181	     -3.04622193	      1.06761078	      1.47894782	      7.57329307	     -7.62840889	     -8.57150229	      7.57672234	     -4.30624490	     24.91469219	     -4.11888297	      0.43484341	     18.73983200	      1.66587509	     -7.62840889	    -33.01972938	     -3.58687368	      3.48527205	      8.78311595	    -12.12246275	    -21.76116686	     27.23689442	     90.00000001	      0.00000000	      0.00000000	     -1.91397718	    -17.48148151	      2.42015508	     69.64023559	     90.00000001	      0.00000000	      0.00000000
      1.37000000	     21.17746982	      2.45892880	      2.51303709	      0.05137181	      0.93995928	     -0.26952644	    -17.30521676	     -9.61066094	    -16.38323466	     62.23584315	     -3.60744254	      1.08622038	      3.09519130	      6.65560465	     -7.62639102	     -9.15857658	      7.46984514	     -3.75337258	     24.78312789	     -3.79151067	      0.43254718	     18.83984616	      1.03015145	     -7.62639102	    -33.29796573	     -3.49452419	      3.52977009	      8.45447407	    -12.25147983	    -22.10373245	     27.02012082	     90.00000001	      0.00000000	      0.00000000	     -1.71123367	    -17.60235162	      2.38145450	     69.82513012	     90.00000001	      0.00000000	      0.00000000
      1.38000000	     21.14797150	      2.67287856	      2.48051359	      0.05559986	      0.94044253	     -0.27139865	    -16.03958790	    -10.02605217	    -16.67897059	     63.28715472	     -3.99231587	      1.10456922	      4.77860090	      6.09559012	     -7.61899917	     -9.77789979	      7.88937477	     -1.82940160	     24.22952510	     -3.09333528	      0.42288499	     17.86255020	     -2.22185181	     -7.61899917	    -33.45106072	     -3.72203212	      3.26890960	      8.48854331	    -12.11760397	    -24.03018676	     26.46747170	     90.00000001	      0.00000000	      0.00000000	     -1.49396392	    -17.77402602	      2.44268031	     69.92749529	     90.00000001	      0.00000000	      0.00000000
      1.39000000	     21.38416517	      2.44028616	      2.37054400	      0.06015268	      0.94127099	     -0.27251577	    -15.09907257	     -9.68393460	    -16.74940042	     63.78067467	     -4.57379826	      1.11318277	      6.32461119	      5.60599861	     -7.61726351	    -10.49628405	      7.68378611	     -1.65312434	     23.95212604	     -2.91864462	      0.41804346	     18.02660302	     -2.26851036	     -7.61726351	    -33.79838396	     -3.60159207	      3.35993186	      8.14256580	    -12.22395474	    -24.23959148	     26.30443701	     90.00000001	      0.00000000	      0.00000000	     -1.30981056	    -17.86283028	      2.34150736	     70.07598868	     90.00000001	      0.00000000	      0.00000000
      1.40000000	     21.49833537	      2.28430555	      2.30527004	      0.06449348	      0.94188682	     -0.27371954	    -14.01128396	     -9.42099042	    -16.87782614	     64.12681652	     -5.11656610	      1.11922409	      7.88334708	      5.32027373	     -7.61540803	    -11.07392885	      7.56666154	     -1.43674353	     23.66001202	     -2.74323082	      0.41294511	     18.15013728	     -2.40153027	     -7.61540803	    -34.04771555	     -3.53317015	      3.33370431	      7.86372365	    -12.29601359	    -24.50001194	     26.13328276	     90.00000001	      0.00000000	      0.00000000	     -1.14866146	    -17.99919830	      2.27913370	     70.20387585	     90.00000001	      0.00000000	      0.00000000
